<?xml version="1.0" encoding="UTF-8" standalone="no"?>
<!-- Generator: Adobe Illustrator 19.0.0, SVG Export Plug-In . SVG Version: 6.00 Build 0)  -->

<svg
   xmlns:dc="http://purl.org/dc/elements/1.1/"
   xmlns:cc="http://creativecommons.org/ns#"
   xmlns:rdf="http://www.w3.org/1999/02/22-rdf-syntax-ns#"
   xmlns:svg="http://www.w3.org/2000/svg"
   xmlns="http://www.w3.org/2000/svg"
   xmlns:sodipodi="http://sodipodi.sourceforge.net/DTD/sodipodi-0.dtd"
   xmlns:inkscape="http://www.inkscape.org/namespaces/inkscape"
   version="1.1"
   id="Layer_1"
   x="0px"
   y="0px"
   viewBox="0 0 16 16"
   xml:space="preserve"
   sodipodi:docname="icon_fts.svg"
   inkscape:version="0.92.5 (2060ec1f9f, 2020-04-08)"
   width="16"
   height="16"><metadata
   id="metadata49"><rdf:RDF><cc:Work
       rdf:about=""><dc:format>image/svg+xml</dc:format><dc:type
         rdf:resource="http://purl.org/dc/dcmitype/StillImage" /><dc:title></dc:title></cc:Work></rdf:RDF></metadata><defs
   id="defs47">



	</defs><sodipodi:namedview
   pagecolor="#ffffff"
   bordercolor="#666666"
   borderopacity="1"
   objecttolerance="10"
   gridtolerance="10"
   guidetolerance="10"
   inkscape:pageopacity="0"
   inkscape:pageshadow="2"
   inkscape:window-width="1901"
   inkscape:window-height="703"
   id="namedview45"
   showgrid="false"
   inkscape:zoom="7.375"
   inkscape:cx="276.27294"
   inkscape:cy="154.84527"
   inkscape:window-x="18"
   inkscape:window-y="65"
   inkscape:window-maximized="0"
   inkscape:current-layer="Layer_1" />
<g
   id="g6"
   transform="translate(0,-496)">
	<g
   id="g4">

	</g>
</g>

<g
   id="g14"
   transform="translate(0,-496)">
</g>
<g
   id="g16"
   transform="translate(0,-496)">
</g>
<g
   id="g18"
   transform="translate(0,-496)">
</g>
<g
   id="g20"
   transform="translate(0,-496)">
</g>
<g
   id="g22"
   transform="translate(0,-496)">
</g>
<g
   id="g24"
   transform="translate(0,-496)">
</g>
<g
   id="g26"
   transform="translate(0,-496)">
</g>
<g
   id="g28"
   transform="translate(0,-496)">
</g>
<g
   id="g30"
   transform="translate(0,-496)">
</g>
<g
   id="g32"
   transform="translate(0,-496)">
</g>
<g
   id="g34"
   transform="translate(0,-496)">
</g>
<g
   id="g36"
   transform="translate(0,-496)">
</g>
<g
   id="g38"
   transform="translate(0,-496)">
</g>
<g
   id="g40"
   transform="translate(0,-496)">
</g>
<g
   id="g42"
   transform="translate(0,-496)">
</g>
<path
   style="fill:#000080"
   inkscape:connector-curvature="0"
   d="m 269.82972,-172.0678 -20.4992,12 v 24 l 20.5,12 20.5,-12 v -24 z"
   id="path27"
   sodipodi:nodetypes="ccccccc" /><g
   inkscape:groupmode="layer"
   id="layer1"
   inkscape:label="tuning_fork"
   transform="translate(0,-496)"><g
     id="g4602"
     transform="translate(-0.27118644,-1.4915254)"><path
       style="fill:#ffffff;stroke-width:0.03867188"
       id="path2"
       d="m 272.674,336.3058 c -0.48099,-0.18405 -0.86874,0.30614 -0.84724,1.09933 l 0.29499,10.86713 c 0.0442,1.6303 -0.70358,2.6568 -1.69233,2.27855 -0.98872,-0.37829 -1.80853,-2.00465 -1.85282,-3.63504 l -0.29494,-10.86712 c -0.0215,-0.79315 -0.44434,-1.59349 -0.92532,-1.77757 -0.481,-0.18404 -0.86874,0.30616 -0.84723,1.09934 l 0.29498,10.86713 c 0.0681,2.50761 1.16042,5.19306 2.66114,6.53233 0.0919,0.082 0.15399,0.24308 0.15821,0.39979 l 0.18493,6.81354 c 0.28914,-0.1195 0.59357,-0.13369 0.92485,-0.007 0.29313,0.11217 0.58741,0.32726 0.84563,0.60894 l -0.18225,-6.71457 c -0.004,-0.16033 0.0529,-0.27776 0.14505,-0.28648 1.48059,-0.13855 2.42407,-2.00135 2.35265,-4.63366 l -0.29496,-10.86716 c -0.0215,-0.79313 -0.44437,-1.59347 -0.92534,-1.77754 z"
       inkscape:connector-curvature="0" /><path
       inkscape:connector-curvature="0"
       id="path8"
       d="m 270.57299,358.81785 c -0.93265,-0.26707 -1.65747,0.45205 -1.61572,1.60299 0.0418,1.15094 0.83449,2.30462 1.76712,2.57168 0.93265,0.26707 1.65747,-0.45204 1.61572,-1.60299 -0.0418,-1.15094 -0.83448,-2.30462 -1.76712,-2.57168 z"
       style="fill:#ffffff;stroke-width:0.04325155" /></g></g></svg>