<?xml version="1.0" encoding="UTF-8" standalone="no"?>
<svg
   xmlns:dc="http://purl.org/dc/elements/1.1/"
   xmlns:cc="http://creativecommons.org/ns#"
   xmlns:rdf="http://www.w3.org/1999/02/22-rdf-syntax-ns#"
   xmlns:svg="http://www.w3.org/2000/svg"
   xmlns="http://www.w3.org/2000/svg"
   xmlns:sodipodi="http://sodipodi.sourceforge.net/DTD/sodipodi-0.dtd"
   xmlns:inkscape="http://www.inkscape.org/namespaces/inkscape"
   width="16"
   height="16"
   viewBox="0 0 16 16"
   version="1.1"
   id="svg15"
   sodipodi:docname="search-icon.svg"
   inkscape:version="0.92.5 (2060ec1f9f, 2020-04-08)">
  <metadata
     id="metadata19">
    <rdf:RDF>
      <cc:Work
         rdf:about="">
        <dc:format>image/svg+xml</dc:format>
        <dc:type
           rdf:resource="http://purl.org/dc/dcmitype/StillImage" />
        <dc:title />
      </cc:Work>
    </rdf:RDF>
  </metadata>
  <sodipodi:namedview
     pagecolor="#ffffff"
     bordercolor="#666666"
     borderopacity="1"
     objecttolerance="10"
     gridtolerance="10"
     guidetolerance="10"
     inkscape:pageopacity="0"
     inkscape:pageshadow="2"
     inkscape:window-width="2222"
     inkscape:window-height="628"
     id="namedview17"
     showgrid="false"
     inkscape:zoom="19.489631"
     inkscape:cx="2.1073416"
     inkscape:cy="5.5748999"
     inkscape:window-x="0"
     inkscape:window-y="231"
     inkscape:window-maximized="0"
     inkscape:current-layer="svg15" />
  <!-- Generator: Sketch 51.2 (57519) - http://www.bohemiancoding.com/sketch -->
  <desc
     id="desc2">Created with Sketch.</desc>
  <defs
     id="defs5">
    <polygon
       id="path-1"
       points="16,0 16,16 0,16 0,0 " />
  </defs>
  <g
     id="g4607"
     transform="matrix(0.00341858,-0.02815039,0.03128832,0.00325531,-0.24010176,14.085291)"
     style="fill:#000080">
    <path
       id="path4540"
       d="m 481.6,98.352 c -8,-8 -20.8,-8 -28.8,0 l -192,192 c -4.8,4.8 -12,4.8 -16.8,0 l -46.4,-46.4 c -4.8,-4.8 -4.8,-12 0,-16.8 l 192,-192 c 8,-8 8,-20.8 0,-28.8 -8,-8 -20.8,-8 -28.8,0 l -192,192 c -20.8,20.8 -20.8,54.4 0,75.2 l 8.8,8.8 -141.6,140.8 c -8,8 -8,20.8 0,28.8 8,8 20.8,8 28.8,0 l 141.6,-141.6 8.8,8.8 c 20.8,20.8 54.4,20.8 75.2,0 l 192,-192 c 8,-8 8,-20.8 -0.8,-28.8 z"
       style="fill:#000080"
       inkscape:connector-curvature="0" />
    <g
       id="g4546"
       style="fill:#000080">
      <path
         id="path4542"
         d="m 481.6,98.352 c -8,-8 -20.8,-8 -28.8,0 l -164.8,164.8 -27.2,27.2 c -4.8,4.8 -12,4.8 -16.8,0 l -46.4,-46.4 c -4.8,-4.8 -4.8,-12 0,-16.8 l 27.2,-27.2 164.8,-164.8 c 8,-8 8,-20.8 0,-28.8 -8,-8 -20.8,-8 -28.8,0 L 196,171.152 c -20.8,20.8 -20.8,54.4 0,75.2 l 8.8,8.8 -27.2,27.2 -114.4,113.6 c -8,8 -8,20.8 0,28.8 8,8 20.8,8 28.8,0 l 113.6,-113.6 27.2,-27.2 8.8,8.8 c 20.8,20.8 54.4,20.8 75.2,0 l 164.8,-164.8 c 8.8,-8.8 8.8,-21.6 0,-29.6 z"
         style="fill:#000080"
         inkscape:connector-curvature="0" />
      <circle
         id="circle4544"
         r="45.599998"
         cy="442.35199"
         cx="45.599998"
         style="fill:#000080" />
    </g>
    <ellipse
       id="ellipse4548"
       ry="24"
       rx="16.799999"
       cy="426.73401"
       cx="61.750999"
       style="fill:#000080"
       transform="matrix(0.7072,-0.707,0.707,0.7072,-283.624,168.6032)" />
    <g
       id="g4550"
       style="fill:#000080" />
    <g
       id="g4552"
       style="fill:#000080" />
    <g
       id="g4554"
       style="fill:#000080" />
    <g
       id="g4556"
       style="fill:#000080" />
    <g
       id="g4558"
       style="fill:#000080" />
    <g
       id="g4560"
       style="fill:#000080" />
    <g
       id="g4562"
       style="fill:#000080" />
    <g
       id="g4564"
       style="fill:#000080" />
    <g
       id="g4566"
       style="fill:#000080" />
    <g
       id="g4568"
       style="fill:#000080" />
    <g
       id="g4570"
       style="fill:#000080" />
    <g
       id="g4572"
       style="fill:#000080" />
    <g
       id="g4574"
       style="fill:#000080" />
    <g
       id="g4576"
       style="fill:#000080" />
    <g
       id="g4578"
       style="fill:#000080" />
  </g>
</svg>
